<?xml version="1.0" standalone="no"?>
<!DOCTYPE svg PUBLIC "-//W3C//DTD SVG 20010904//EN"
 "http://www.w3.org/TR/2001/REC-SVG-20010904/DTD/svg10.dtd">
<svg version="1.0" xmlns="http://www.w3.org/2000/svg"
 width="100.000000pt" height="100.000000pt" viewBox="0 0 100.000000 100.000000"
 preserveAspectRatio="xMidYMid meet">

<g transform="translate(0.000000,100.000000) scale(0.100000,-0.100000)"
fill="#000000" stroke="none">
<path d="M134 781 c-70 -32 -76 -56 -72 -300 3 -195 5 -212 24 -238 39 -52 43
-53 414 -53 329 0 347 1 378 20 53 32 63 71 60 227 -2 98 -7 138 -15 141 -10
3 -13 -28 -13 -131 0 -74 -5 -148 -11 -165 -21 -62 -23 -62 -402 -62 l-344 0
-26 24 c-35 33 -39 64 -35 279 l3 187 28 27 27 28 329 3 c275 3 335 1 365 -12
37 -16 67 -60 50 -75 -5 -5 -95 -48 -201 -94 l-192 -85 -160 84 c-88 46 -164
84 -170 84 -6 0 -11 -6 -11 -13 0 -10 298 -175 335 -185 17 -4 427 182 438
199 17 27 -20 89 -67 110 -37 17 -71 19 -366 19 -295 0 -329 -2 -366 -19z"/>
</g>
</svg>
